<svg xmlns="http://www.w3.org/2000/svg" xmlns:xlink="http://www.w3.org/1999/xlink" width="1000" zoomAndPan="magnify" viewBox="0 0 750 525.000007" height="700" preserveAspectRatio="xMidYMid meet" version="1.0"><defs><clipPath id="id1"><path d="M 0.714844 0 L 749.285156 0 L 749.285156 524 L 0.714844 524 Z M 0.714844 0 " clip-rule="nonzero"/></clipPath></defs><g clip-path="url(#id1)"><path fill="#ffffff" d="M 0.714844 0 L 749.285156 0 L 749.285156 524.003906 L 0.714844 524.003906 Z M 0.714844 0 " fill-opacity="1" fill-rule="nonzero"/><path fill="#000000" d="M 0.714844 0 L 749.285156 0 L 749.285156 524.003906 L 0.714844 524.003906 Z M 0.714844 0 " fill-opacity="1" fill-rule="nonzero"/></g><path stroke-linecap="round" transform="matrix(0.347895, 0, 0, 0.347614, 268.487272, 159.17691)" fill-opacity="1" fill="#ffbc00" fill-rule="nonzero" stroke-linejoin="round" d="M 339.443934 29.674529 L 404.107389 160.724218 C 409.249925 171.141219 419.186921 178.355581 430.684642 180.029943 L 575.30442 201.043742 C 604.26206 205.246501 615.815923 240.835111 594.875249 261.264568 L 490.228018 363.254534 C 481.90789 371.367883 478.112743 383.054701 480.077686 394.505536 L 504.779822 538.534336 C 509.731477 567.369313 479.460132 589.360759 453.556574 575.752358 L 324.218436 507.755302 C 313.944593 502.338911 301.649666 502.338911 291.364595 507.755302 L 162.015228 575.752358 C 136.122899 589.371996 105.851554 567.369313 110.803209 538.534336 L 135.505345 394.505536 C 137.45906 383.054701 133.675142 371.367883 125.355013 363.254534 L 20.696554 261.264568 C -0.255349 240.835111 11.309742 205.246501 40.267383 201.043742 L 184.875932 180.029943 C 196.384882 178.355581 206.321878 171.141219 211.464413 160.724218 L 276.11664 29.674529 C 289.074033 3.435374 326.486541 3.435374 339.443934 29.674529 Z M 339.443934 29.674529 " stroke="#8e3a02" stroke-width="20" stroke-opacity="1" stroke-miterlimit="4"/><path fill="#fff200" d="M 384.035156 190.773438 L 401.339844 225.8125 C 402.71875 228.59375 405.378906 230.527344 408.457031 230.976562 L 447.15625 236.59375 C 454.902344 237.71875 458 247.234375 452.390625 252.695312 L 424.390625 279.96875 C 422.164062 282.136719 421.148438 285.261719 421.671875 288.324219 L 428.28125 326.839844 C 429.605469 334.546875 421.503906 340.429688 414.574219 336.789062 L 379.964844 318.605469 C 377.210938 317.160156 373.921875 317.160156 371.171875 318.605469 L 336.558594 336.789062 C 329.628906 340.429688 321.527344 334.550781 322.851562 326.839844 L 329.460938 288.324219 C 329.988281 285.261719 328.972656 282.136719 326.746094 279.96875 L 298.742188 252.695312 C 293.136719 247.234375 296.230469 237.71875 303.980469 236.59375 L 342.679688 230.976562 C 345.757812 230.527344 348.417969 228.597656 349.792969 225.8125 L 367.101562 190.773438 C 370.566406 183.757812 380.578125 183.757812 384.042969 190.773438 Z M 384.035156 190.773438 " fill-opacity="1" fill-rule="nonzero"/><path fill="#ffffff" d="M 381.675781 218.457031 C 383.601562 222.472656 385.527344 226.492188 387.457031 230.503906 C 389.386719 234.515625 391.421875 238.117188 394.589844 241.003906 C 401.042969 246.898438 409.609375 249.207031 418.1875 249.433594 C 422.738281 249.554688 427.089844 245.351562 426.882812 240.746094 C 426.679688 236.136719 423.0625 232.1875 418.1875 232.054688 C 417.398438 232.035156 416.609375 232 415.824219 231.9375 C 415.472656 231.90625 415.121094 231.859375 414.769531 231.835938 C 413.632812 231.753906 416.628906 232.152344 415.507812 231.9375 C 413.941406 231.636719 412.40625 231.34375 410.886719 230.855469 C 410.558594 230.746094 410.226562 230.636719 409.898438 230.515625 C 409.191406 230.253906 408.585938 229.617188 410.292969 230.703125 C 409.722656 230.335938 409.042969 230.101562 408.453125 229.761719 C 408.15625 229.589844 407.859375 229.414062 407.570312 229.222656 C 407.398438 229.113281 406.03125 228.097656 407.195312 229.011719 C 408.265625 229.851562 407.296875 229.066406 407.082031 228.878906 C 406.757812 228.59375 406.449219 228.300781 406.144531 227.992188 C 405.902344 227.742188 405.675781 227.480469 405.441406 227.222656 C 404.523438 226.207031 405.609375 227.601562 405.726562 227.601562 C 405.425781 227.601562 404.527344 225.71875 404.335938 225.375 C 403.503906 223.902344 402.78125 222.367188 402.050781 220.839844 C 400.265625 217.121094 398.476562 213.402344 396.695312 209.679688 C 394.722656 205.570312 388.519531 204.160156 384.796875 206.558594 C 380.570312 209.28125 379.566406 214.054688 381.675781 218.449219 Z M 381.675781 218.457031 " fill-opacity="1" fill-rule="nonzero"/><path fill="#ffffff" d="M 439.871094 250.75 C 444.421875 250.75 448.777344 246.75 448.566406 242.058594 C 448.359375 237.367188 444.75 233.367188 439.871094 233.367188 C 435.320312 233.367188 430.964844 237.367188 431.171875 242.058594 C 431.382812 246.75 434.992188 250.75 439.871094 250.75 Z M 439.871094 250.75 " fill-opacity="1" fill-rule="nonzero"/></svg>