<svg xmlns="http://www.w3.org/2000/svg" xmlns:xlink="http://www.w3.org/1999/xlink" width="1000" zoomAndPan="magnify" viewBox="0 0 750 525.000007" height="700" preserveAspectRatio="xMidYMid meet" version="1.0"><defs><clipPath id="id1"><path d="M 0.714844 0 L 749.285156 0 L 749.285156 524 L 0.714844 524 Z M 0.714844 0 " clip-rule="nonzero"/></clipPath></defs><g clip-path="url(#id1)"><path fill="#ffffff" d="M 0.714844 0 L 749.285156 0 L 749.285156 524 L 0.714844 524 Z M 0.714844 0 " fill-opacity="1" fill-rule="nonzero"/><path fill="#000000" d="M 0.714844 0 L 749.285156 0 L 749.285156 524 L 0.714844 524 Z M 0.714844 0 " fill-opacity="1" fill-rule="nonzero"/></g><path stroke-linecap="round" transform="matrix(0.298974, 0, 0, 0.29917, 180.039615, 173.503608)" fill-opacity="1" fill="#ffbc00" fill-rule="nonzero" stroke-linejoin="round" d="M 339.440217 29.679479 L 404.114513 160.719185 C 409.24926 171.138644 419.192117 178.359146 430.689769 180.030437 L 575.298883 201.039095 C 604.265128 205.256495 615.815043 240.823669 594.871023 261.25782 L 490.229318 363.258834 C 481.906586 371.36721 478.104521 383.066251 480.077414 394.504152 L 504.784301 538.535539 C 509.736131 567.365319 479.463335 589.366306 453.554419 575.747891 L 324.218892 507.747214 C 313.936332 502.34163 301.654749 502.34163 291.359123 507.747214 L 162.023596 575.747891 C 136.114681 589.366306 105.85495 567.365319 110.793714 538.535539 L 135.500602 394.504152 C 137.460429 383.066251 133.67143 371.36721 125.348697 363.258834 L 20.693927 261.25782 C -0.250093 240.836725 11.312887 205.256495 40.266067 201.039095 L 184.875181 180.030437 C 196.385899 178.359146 206.31569 171.138644 211.463503 160.719185 L 276.124734 29.679479 C 289.072658 3.434979 326.492292 3.434979 339.440217 29.679479 Z M 339.440217 29.679479 " stroke="#8e3a02" stroke-width="20" stroke-opacity="1" stroke-miterlimit="4"/><path fill="#fff200" d="M 279.335938 200.695312 L 294.210938 230.851562 C 295.394531 233.246094 297.679688 234.910156 300.324219 235.296875 L 333.582031 240.132812 C 340.242188 241.101562 342.902344 249.289062 338.082031 253.988281 L 314.019531 277.460938 C 312.105469 279.328125 311.234375 282.019531 311.683594 284.652344 L 317.363281 317.800781 C 318.5 324.433594 311.539062 329.496094 305.585938 326.363281 L 275.839844 310.714844 C 273.476562 309.46875 270.648438 309.46875 268.285156 310.714844 L 238.539062 326.363281 C 232.585938 329.496094 225.621094 324.4375 226.761719 317.800781 L 232.441406 284.652344 C 232.890625 282.019531 232.019531 279.328125 230.105469 277.460938 L 206.042969 253.988281 C 201.222656 249.289062 203.882812 241.101562 210.539062 240.132812 L 243.800781 235.296875 C 246.445312 234.910156 248.730469 233.25 249.914062 230.851562 L 264.785156 200.695312 C 267.765625 194.65625 276.367188 194.65625 279.347656 200.695312 Z M 279.335938 200.695312 " fill-opacity="1" fill-rule="nonzero"/><path fill="#ffffff" d="M 277.3125 224.523438 C 278.96875 227.980469 280.621094 231.4375 282.28125 234.890625 C 283.9375 238.34375 285.6875 241.441406 288.410156 243.929688 C 293.953125 249 301.320312 250.984375 308.6875 251.183594 C 312.597656 251.289062 316.339844 247.667969 316.164062 243.703125 C 315.984375 239.738281 312.878906 236.339844 308.6875 236.222656 C 308.007812 236.207031 307.332031 236.175781 306.65625 236.121094 C 306.355469 236.097656 306.054688 236.058594 305.753906 236.035156 C 304.773438 235.96875 307.347656 236.308594 306.386719 236.121094 C 305.039062 235.867188 303.722656 235.613281 302.414062 235.191406 C 302.132812 235.101562 301.847656 235.003906 301.566406 234.898438 C 300.957031 234.675781 300.4375 234.128906 301.90625 235.0625 C 301.414062 234.746094 300.832031 234.542969 300.324219 234.25 C 300.070312 234.101562 299.816406 233.949219 299.566406 233.789062 C 299.417969 233.695312 298.242188 232.820312 299.242188 233.605469 C 300.160156 234.328125 299.332031 233.65625 299.144531 233.492188 C 298.867188 233.246094 298.601562 232.992188 298.339844 232.726562 C 298.132812 232.511719 297.9375 232.289062 297.738281 232.066406 C 296.949219 231.191406 297.878906 232.390625 297.980469 232.390625 C 297.722656 232.390625 296.949219 230.773438 296.785156 230.476562 C 296.070312 229.210938 295.449219 227.886719 294.820312 226.574219 C 293.289062 223.371094 291.75 220.171875 290.21875 216.96875 C 288.523438 213.429688 283.191406 212.21875 279.992188 214.285156 C 276.363281 216.625 275.5 220.734375 277.3125 224.515625 Z M 277.3125 224.523438 " fill-opacity="1" fill-rule="nonzero"/><path fill="#ffffff" d="M 327.324219 252.3125 C 331.234375 252.3125 334.976562 248.875 334.796875 244.835938 C 334.617188 240.796875 331.515625 237.355469 327.324219 237.355469 C 323.414062 237.355469 319.667969 240.796875 319.847656 244.835938 C 320.027344 248.875 323.132812 252.3125 327.324219 252.3125 Z M 327.324219 252.3125 " fill-opacity="1" fill-rule="nonzero"/><path stroke-linecap="round" transform="matrix(0.298974, 0, 0, 0.29917, 180.039615, 173.503608)" fill-opacity="1" fill="#ffbc00" fill-rule="nonzero" stroke-linejoin="round" d="M 1029.913457 29.679479 L 1094.574688 160.719185 C 1099.722501 171.138644 1109.665357 178.359146 1121.16301 180.030437 L 1265.772123 201.039095 C 1294.725303 205.256495 1306.288283 240.823669 1285.344264 261.25782 L 1180.702559 363.258834 C 1172.379826 371.36721 1168.577761 383.066251 1170.550654 394.504152 L 1195.244476 538.535539 C 1200.196306 567.365319 1169.923509 589.366306 1144.02766 575.747891 L 1014.692133 507.747214 C 1004.409573 502.34163 992.114924 502.34163 981.832364 507.747214 L 852.483771 575.747891 C 826.587922 589.366306 796.315125 567.365319 801.266955 538.535539 L 825.973842 394.504152 C 827.93367 383.066251 824.14467 371.36721 815.821938 363.258834 L 711.180233 261.25782 C 690.236213 240.836725 701.786128 205.256495 730.752373 201.039095 L 875.361487 180.030437 C 886.85914 178.359146 896.801996 171.138644 901.936743 160.719185 L 966.584909 29.679479 C 979.545899 3.434979 1016.965532 3.434979 1029.913457 29.679479 Z M 1029.913457 29.679479 " stroke="#8e3a02" stroke-width="20" stroke-opacity="1" stroke-miterlimit="4"/><path fill="#fff200" d="M 485.769531 200.695312 L 500.644531 230.851562 C 501.828125 233.246094 504.113281 234.910156 506.757812 235.296875 L 540.015625 240.132812 C 546.675781 241.101562 549.335938 249.289062 544.515625 253.988281 L 520.453125 277.460938 C 518.539062 279.328125 517.664062 282.019531 518.117188 284.652344 L 523.796875 317.800781 C 524.933594 324.433594 517.972656 329.496094 512.015625 326.363281 L 482.273438 310.714844 C 479.90625 309.46875 477.082031 309.46875 474.71875 310.714844 L 444.972656 326.363281 C 439.015625 329.496094 432.054688 324.4375 433.191406 317.800781 L 438.875 284.652344 C 439.324219 282.019531 438.453125 279.328125 436.539062 277.460938 L 412.472656 253.988281 C 407.65625 249.289062 410.316406 241.101562 416.972656 240.132812 L 450.230469 235.296875 C 452.878906 234.910156 455.160156 233.25 456.34375 230.851562 L 471.21875 200.695312 C 474.195312 194.65625 482.800781 194.65625 485.78125 200.695312 Z M 485.769531 200.695312 " fill-opacity="1" fill-rule="nonzero"/><path fill="#ffffff" d="M 483.742188 224.523438 C 485.398438 227.980469 487.054688 231.4375 488.710938 234.890625 C 490.371094 238.34375 492.121094 241.441406 494.839844 243.929688 C 500.386719 249 507.75 250.984375 515.121094 251.183594 C 519.03125 251.289062 522.773438 247.667969 522.59375 243.703125 C 522.417969 239.738281 519.3125 236.339844 515.121094 236.222656 C 514.441406 236.207031 513.765625 236.175781 513.089844 236.121094 C 512.789062 236.097656 512.488281 236.058594 512.183594 236.035156 C 511.207031 235.96875 513.78125 236.308594 512.820312 236.121094 C 511.472656 235.867188 510.15625 235.613281 508.847656 235.191406 C 508.5625 235.101562 508.28125 235.003906 508 234.898438 C 507.390625 234.675781 506.867188 234.128906 508.335938 235.0625 C 507.847656 234.746094 507.265625 234.542969 506.753906 234.25 C 506.5 234.101562 506.246094 233.949219 506 233.789062 C 505.847656 233.695312 504.675781 232.820312 505.675781 233.605469 C 506.59375 234.328125 505.761719 233.65625 505.578125 233.492188 C 505.300781 233.246094 505.035156 232.992188 504.773438 232.726562 C 504.5625 232.511719 504.371094 232.289062 504.167969 232.066406 C 503.378906 231.191406 504.3125 232.390625 504.414062 232.390625 C 504.15625 232.390625 503.382812 230.773438 503.21875 230.476562 C 502.503906 229.210938 501.882812 227.886719 501.253906 226.574219 C 499.71875 223.371094 498.183594 220.171875 496.648438 216.96875 C 494.953125 213.429688 489.625 212.21875 486.425781 214.285156 C 482.796875 216.625 481.933594 220.734375 483.742188 224.515625 Z M 483.742188 224.523438 " fill-opacity="1" fill-rule="nonzero"/><path fill="#ffffff" d="M 533.753906 252.3125 C 537.667969 252.3125 541.410156 248.875 541.230469 244.835938 C 541.046875 240.78125 537.949219 237.355469 533.753906 237.355469 C 529.84375 237.355469 526.101562 240.796875 526.28125 244.835938 C 526.464844 248.886719 529.5625 252.3125 533.753906 252.3125 Z M 533.753906 252.3125 " fill-opacity="1" fill-rule="nonzero"/></svg>