<svg xmlns="http://www.w3.org/2000/svg" xmlns:xlink="http://www.w3.org/1999/xlink" width="1000" zoomAndPan="magnify" viewBox="0 0 750 525.000007" height="700" preserveAspectRatio="xMidYMid meet" version="1.0"><defs><clipPath id="id1"><path d="M 0.714844 0 L 749.285156 0 L 749.285156 524 L 0.714844 524 Z M 0.714844 0 " clip-rule="nonzero"/></clipPath></defs><g clip-path="url(#id1)"><path fill="#ffffff" d="M 0.714844 0 L 749.285156 0 L 749.285156 524 L 0.714844 524 Z M 0.714844 0 " fill-opacity="1" fill-rule="nonzero"/><path fill="#000000" d="M 0.714844 0 L 749.285156 0 L 749.285156 524 L 0.714844 524 Z M 0.714844 0 " fill-opacity="1" fill-rule="nonzero"/></g><path stroke-linecap="round" transform="matrix(0.261348, 0, 0, 0.261502, 114.462584, 184.695318)" fill-opacity="1" fill="#ffbc00" fill-rule="nonzero" stroke-linejoin="round" d="M 339.445291 29.681223 L 404.10416 160.714879 C 409.245781 171.141406 419.185251 178.356323 430.694111 180.029347 L 575.302193 201.046716 C 604.253702 205.244214 615.822349 240.825857 594.867255 261.260654 L 490.226306 363.255388 C 481.916013 371.366568 478.104637 383.062801 480.077584 394.505093 L 504.784267 538.534563 C 509.731583 567.364357 479.464775 589.352677 453.562366 575.744417 L 324.214734 507.747927 C 313.946439 502.340474 301.645411 502.340474 291.36217 507.747927 L 162.014538 575.744417 C 136.127076 589.367615 105.845321 567.364357 110.792637 538.534563 L 135.49932 394.505093 C 137.45732 383.062801 133.675838 371.366568 125.350597 363.255388 L 20.694702 261.260654 C -0.245445 240.840795 11.308255 205.244214 40.274711 201.046716 L 184.882793 180.029347 C 196.376706 178.356323 206.316176 171.141406 211.457797 160.714879 L 276.116666 29.681223 C 289.075344 3.435653 326.486613 3.435653 339.445291 29.681223 Z M 339.445291 29.681223 " stroke="#8e3a02" stroke-width="20" stroke-opacity="1" stroke-miterlimit="4"/><path fill="#fff200" d="M 201.265625 208.464844 L 214.265625 234.824219 C 215.300781 236.917969 217.296875 238.371094 219.609375 238.707031 L 248.683594 242.933594 C 254.503906 243.78125 256.828125 250.9375 252.617188 255.046875 L 231.582031 275.566406 C 229.90625 277.195312 229.144531 279.546875 229.539062 281.851562 L 234.503906 310.824219 C 235.496094 316.625 229.414062 321.046875 224.207031 318.308594 L 198.207031 304.628906 C 196.140625 303.542969 193.667969 303.542969 191.601562 304.628906 L 165.601562 318.308594 C 160.394531 321.046875 154.308594 316.625 155.304688 310.824219 L 160.269531 281.851562 C 160.664062 279.546875 159.902344 277.195312 158.226562 275.566406 L 137.191406 255.046875 C 132.980469 250.9375 135.304688 243.78125 141.125 242.933594 L 170.199219 238.707031 C 172.511719 238.371094 174.507812 236.921875 175.542969 234.824219 L 188.542969 208.464844 C 191.148438 203.1875 198.667969 203.1875 201.273438 208.464844 Z M 201.265625 208.464844 " fill-opacity="1" fill-rule="nonzero"/><path fill="#ffffff" d="M 199.492188 229.292969 C 200.941406 232.3125 202.386719 235.335938 203.835938 238.351562 C 205.285156 241.371094 206.816406 244.078125 209.191406 246.253906 C 214.042969 250.683594 220.476562 252.421875 226.921875 252.59375 C 230.339844 252.6875 233.609375 249.523438 233.453125 246.058594 C 233.300781 242.59375 230.585938 239.617188 226.921875 239.519531 C 226.328125 239.503906 225.738281 239.476562 225.144531 239.429688 C 224.882812 239.410156 224.617188 239.371094 224.355469 239.355469 C 223.5 239.292969 225.75 239.59375 224.90625 239.429688 C 223.730469 239.207031 222.578125 238.984375 221.4375 238.617188 C 221.1875 238.535156 220.941406 238.453125 220.695312 238.359375 C 220.160156 238.164062 219.707031 237.6875 220.992188 238.503906 C 220.5625 238.226562 220.050781 238.050781 219.609375 237.792969 C 219.386719 237.664062 219.164062 237.53125 218.945312 237.390625 C 218.816406 237.308594 217.789062 236.542969 218.664062 237.230469 C 219.46875 237.863281 218.742188 237.273438 218.578125 237.132812 C 218.335938 236.917969 218.101562 236.695312 217.875 236.460938 C 217.691406 236.273438 217.523438 236.078125 217.347656 235.882812 C 216.65625 235.121094 217.472656 236.167969 217.5625 236.167969 C 217.335938 236.167969 216.660156 234.753906 216.515625 234.496094 C 215.890625 233.386719 215.347656 232.230469 214.800781 231.082031 C 213.457031 228.285156 212.113281 225.488281 210.773438 222.6875 C 209.292969 219.59375 204.632812 218.535156 201.835938 220.339844 C 198.664062 222.386719 197.910156 225.980469 199.492188 229.285156 Z M 199.492188 229.292969 " fill-opacity="1" fill-rule="nonzero"/><path fill="#ffffff" d="M 243.210938 253.582031 C 246.628906 253.582031 249.902344 250.574219 249.742188 247.046875 C 249.585938 243.515625 246.875 240.507812 243.210938 240.507812 C 239.792969 240.507812 236.519531 243.515625 236.675781 247.046875 C 236.832031 250.574219 239.546875 253.582031 243.210938 253.582031 Z M 243.210938 253.582031 " fill-opacity="1" fill-rule="nonzero"/><path stroke-linecap="round" transform="matrix(0.261348, 0, 0, 0.261502, 114.462584, 184.695318)" fill-opacity="1" fill="#ffbc00" fill-rule="nonzero" stroke-linejoin="round" d="M 1029.917119 29.681223 L 1094.575988 160.714879 C 1099.717608 171.141406 1109.657079 178.356323 1121.165939 180.029347 L 1265.77402 201.046716 C 1294.72553 205.244214 1306.294176 240.825857 1285.339083 261.260654 L 1180.698134 363.255388 C 1172.372894 371.366568 1168.576464 383.062801 1170.549412 394.505093 L 1195.256095 538.534563 C 1200.20341 567.364357 1169.936602 589.352677 1144.034194 575.744417 L 1014.686562 507.747927 C 1004.403321 502.340474 992.117239 502.340474 981.833997 507.747927 L 852.486366 575.744417 C 826.583957 589.367615 796.317149 567.364357 801.264464 538.534563 L 825.971147 394.505093 C 827.929148 383.062801 824.132719 371.366568 815.822425 363.255388 L 711.181476 261.260654 C 690.226383 240.840795 701.795029 205.244214 730.746539 201.046716 L 875.35462 180.029347 C 886.86348 178.356323 896.802951 171.141406 901.944571 160.714879 L 966.588494 29.681223 C 979.547172 3.435653 1016.958441 3.435653 1029.917119 29.681223 Z M 1029.917119 29.681223 " stroke="#8e3a02" stroke-width="20" stroke-opacity="1" stroke-miterlimit="4"/><path fill="#fff200" d="M 381.714844 208.464844 L 394.71875 234.824219 C 395.753906 236.917969 397.75 238.371094 400.0625 238.707031 L 429.136719 242.933594 C 434.957031 243.78125 437.28125 250.9375 433.070312 255.046875 L 412.03125 275.566406 C 410.359375 277.195312 409.597656 279.546875 409.992188 281.851562 L 414.957031 310.824219 C 415.949219 316.625 409.867188 321.046875 404.660156 318.308594 L 378.660156 304.628906 C 376.589844 303.542969 374.121094 303.542969 372.054688 304.628906 L 346.054688 318.308594 C 340.847656 321.046875 334.761719 316.625 335.757812 310.824219 L 340.722656 281.851562 C 341.117188 279.546875 340.351562 277.195312 338.679688 275.566406 L 317.644531 255.046875 C 313.433594 250.9375 315.757812 243.78125 321.578125 242.933594 L 350.648438 238.707031 C 352.964844 238.371094 354.960938 236.921875 355.996094 234.824219 L 368.996094 208.464844 C 371.601562 203.1875 379.121094 203.1875 381.722656 208.464844 Z M 381.714844 208.464844 " fill-opacity="1" fill-rule="nonzero"/><path fill="#ffffff" d="M 379.945312 229.292969 C 381.390625 232.3125 382.835938 235.335938 384.289062 238.351562 C 385.667969 241.222656 387.269531 244.078125 389.644531 246.253906 C 394.492188 250.683594 400.929688 252.421875 407.375 252.59375 C 410.792969 252.6875 414.0625 249.523438 413.90625 246.058594 C 413.753906 242.59375 411.039062 239.617188 407.375 239.519531 C 406.78125 239.503906 406.1875 239.476562 405.597656 239.429688 C 405.335938 239.410156 405.070312 239.371094 404.804688 239.355469 C 403.953125 239.292969 406.203125 239.59375 405.359375 239.429688 C 404.183594 239.207031 403.03125 238.984375 401.890625 238.617188 C 401.640625 238.535156 401.394531 238.453125 401.148438 238.359375 C 400.613281 238.164062 400.160156 237.6875 401.441406 238.503906 C 401.015625 238.226562 400.503906 238.050781 400.0625 237.792969 C 399.839844 237.664062 399.617188 237.53125 399.398438 237.390625 C 399.269531 237.308594 398.242188 236.542969 399.117188 237.230469 C 399.917969 237.863281 399.191406 237.273438 399.03125 237.132812 C 398.789062 236.917969 398.554688 236.695312 398.328125 236.460938 C 398.144531 236.273438 397.976562 236.078125 397.800781 235.882812 C 397.109375 235.121094 397.925781 236.167969 398.015625 236.167969 C 397.785156 236.167969 397.113281 234.753906 396.96875 234.496094 C 396.34375 233.386719 395.800781 232.230469 395.25 231.082031 C 393.910156 228.285156 392.566406 225.488281 391.226562 222.6875 C 389.746094 219.59375 385.085938 218.535156 382.289062 220.339844 C 379.117188 222.386719 378.359375 225.980469 379.945312 229.285156 Z M 379.945312 229.292969 " fill-opacity="1" fill-rule="nonzero"/><path fill="#ffffff" d="M 423.664062 253.582031 C 427.082031 253.582031 430.351562 250.574219 430.195312 247.046875 C 430.039062 243.503906 427.328125 240.507812 423.664062 240.507812 C 420.246094 240.507812 416.972656 243.515625 417.128906 247.046875 C 417.289062 250.589844 420 253.582031 423.664062 253.582031 Z M 423.664062 253.582031 " fill-opacity="1" fill-rule="nonzero"/><path stroke-linecap="round" transform="matrix(0.261348, 0, 0, 0.261502, 114.462584, 184.695318)" fill-opacity="1" fill="#ffbc00" fill-rule="nonzero" stroke-linejoin="round" d="M 1720.374 29.681223 L 1785.047815 160.714879 C 1790.189436 171.141406 1800.128906 178.356323 1811.62282 180.029347 L 1956.245848 201.046716 C 1985.197358 205.244214 1996.766004 240.825857 1975.81091 261.260654 L 1871.169962 363.255388 C 1862.844721 371.366568 1859.048292 383.062801 1861.02124 394.505093 L 1885.712976 538.534563 C 1890.675238 567.364357 1860.393484 589.352677 1834.506021 575.744417 L 1705.15839 507.747927 C 1694.875148 502.340474 1682.589066 502.340474 1672.305825 507.747927 L 1542.958193 575.744417 C 1517.055784 589.367615 1486.788977 567.364357 1491.736292 538.534563 L 1516.442975 394.505093 C 1518.400976 383.062801 1514.604547 371.366568 1506.294253 363.255388 L 1401.653304 261.260654 C 1380.69821 240.840795 1392.266857 205.244214 1421.218366 201.046716 L 1565.826448 180.029347 C 1577.335308 178.356323 1587.274778 171.141406 1592.416399 160.714879 L 1657.075268 29.681223 C 1670.033946 3.435653 1707.445215 3.435653 1720.403893 29.681223 Z M 1720.374 29.681223 " stroke="#8e3a02" stroke-width="20" stroke-opacity="1" stroke-miterlimit="4"/><path fill="#fff200" d="M 562.167969 208.464844 L 575.171875 234.824219 C 576.207031 236.917969 578.203125 238.371094 580.515625 238.707031 L 609.589844 242.933594 C 615.410156 243.78125 617.734375 250.9375 613.519531 255.046875 L 592.484375 275.566406 C 590.8125 277.195312 590.050781 279.546875 590.445312 281.851562 L 595.410156 310.824219 C 596.402344 316.625 590.320312 321.046875 585.113281 318.308594 L 559.113281 304.628906 C 557.042969 303.542969 554.574219 303.542969 552.507812 304.628906 L 526.503906 318.308594 C 521.300781 321.046875 515.214844 316.625 516.207031 310.824219 L 521.175781 281.851562 C 521.570312 279.546875 520.804688 277.195312 519.132812 275.566406 L 498.097656 255.046875 C 493.882812 250.9375 496.210938 243.78125 502.03125 242.933594 L 531.101562 238.707031 C 533.414062 238.371094 535.414062 236.921875 536.449219 234.824219 L 549.449219 208.464844 C 552.050781 203.1875 559.574219 203.1875 562.175781 208.464844 Z M 562.167969 208.464844 " fill-opacity="1" fill-rule="nonzero"/><path fill="#ffffff" d="M 560.398438 229.292969 C 561.84375 232.3125 563.289062 235.335938 564.742188 238.351562 C 566.121094 241.222656 567.71875 244.078125 570.097656 246.253906 C 574.945312 250.683594 581.382812 252.421875 587.824219 252.59375 C 591.242188 252.6875 594.511719 249.523438 594.359375 246.058594 C 594.207031 242.59375 591.488281 239.617188 587.824219 239.519531 C 587.234375 239.503906 586.640625 239.476562 586.050781 239.429688 C 585.789062 239.410156 585.523438 239.371094 585.257812 239.355469 C 584.40625 239.292969 586.65625 239.59375 585.8125 239.429688 C 584.636719 239.207031 583.484375 238.984375 582.34375 238.617188 C 582.09375 238.535156 581.847656 238.453125 581.601562 238.359375 C 581.066406 238.164062 580.613281 237.6875 581.894531 238.503906 C 581.46875 238.226562 580.957031 238.050781 580.511719 237.792969 C 580.292969 237.664062 580.070312 237.53125 579.851562 237.390625 C 579.722656 237.308594 578.695312 236.542969 579.570312 237.230469 C 580.371094 237.863281 579.644531 237.273438 579.484375 237.132812 C 579.242188 236.917969 579.007812 236.695312 578.78125 236.460938 C 578.597656 236.273438 578.425781 236.078125 578.253906 235.882812 C 577.5625 235.121094 578.378906 236.167969 578.46875 236.167969 C 578.238281 236.167969 577.566406 234.753906 577.421875 234.496094 C 576.796875 233.386719 576.253906 232.230469 575.703125 231.082031 C 574.363281 228.285156 573.019531 225.488281 571.679688 222.6875 C 570.199219 219.59375 565.539062 218.535156 562.742188 220.339844 C 559.570312 222.386719 558.8125 225.980469 560.398438 229.285156 Z M 560.398438 229.292969 " fill-opacity="1" fill-rule="nonzero"/><path fill="#ffffff" d="M 604.117188 253.582031 C 607.535156 253.582031 610.804688 250.574219 610.648438 247.046875 C 610.488281 243.503906 607.78125 240.507812 604.117188 240.507812 C 600.695312 240.507812 597.425781 243.515625 597.582031 247.046875 C 597.742188 250.589844 600.453125 253.582031 604.117188 253.582031 Z M 604.117188 253.582031 " fill-opacity="1" fill-rule="nonzero"/></svg>