<?xml version="1.0" standalone="yes"?>
<svg xmlns="http://www.w3.org/2000/svg" width="512" height="512">
<path style="fill:#ffffff; stroke:none;" d="M0 0L0 512L29.6065 511.397L36.6003 498L52 462L3 442L74 414L59 358C80.3564 354.846 101.784 346.11 123 341.424C128.772 340.149 141.939 340.059 145.914 335.436C148.938 331.919 149.888 325.335 151.333 321C154.989 310.032 158.343 298.972 162 288C165.102 278.695 167.9 269.304 171 260C172.087 256.737 174.358 252.469 172.303 249.184C165.28 237.958 144.749 228.337 134 220.576C103.809 198.777 71.3237 178.156 43 154L206 154L217.33 118L241.333 44L255 0L0 0z"/>
<path style="fill:#fecc5e; stroke:none;" d="M255 0L218.28 114L206 154L43 154L73 176.884L139 224.884L163 242.371L172.454 251.04L166.28 274L146 337L199 330.169L230 327.574L256 311.455L282 327.57L325 331.17L366 337L345.72 274L339.546 251.04L349 242.371L373 224.884L439 176.884L469 154L306 154C304.887 141.25 298.229 128.159 294.344 116C286.131 90.2943 277.84 64.6144 269.333 39C266.049 29.1097 263.401 6.30862 255 0z"/>
<path style="fill:#ffffff; stroke:none;" d="M257 0L270.667 44L294.67 118L306 154L469 154C440.676 178.156 408.191 198.777 378 220.576C367.251 228.337 346.72 237.958 339.697 249.184C337.642 252.469 339.913 256.737 341 260C344.1 269.304 346.898 278.695 350 288C353.657 298.972 357.011 310.032 360.667 321C362.112 325.335 363.062 331.919 366.086 335.436C370.061 340.059 383.228 340.149 389 341.424C410.216 346.11 431.644 354.846 453 358L438 414L509 442L460 462L475.4 498L482.394 511.397L512 512L512 0L257 0M231 327L231 328L281 328C276.38 323.288 261.941 309.716 255 310.955C246.796 312.42 238.02 322.629 231 327z"/>
<path style="fill:#eb5f5f; stroke:none;" d="M59 358L74 414C50.5444 419.426 23.8064 429.902 3 442C15.4324 450.254 37.4705 458.549 52 462C43.3637 476.853 35.5346 495.421 31 512C41.0961 510.262 50.5396 504.233 60 500.449C75.77 494.141 91.8659 488.927 108 483.67C115.567 481.204 131.753 480.779 137.382 475.146C144.74 467.783 124.879 444.249 138.02 439.939C152.167 435.3 168.298 433.913 183 431.87C226.114 425.876 268.76 426.439 312 429.914C327.083 431.127 342.128 433.606 357 436.389C362.8 437.474 370.618 437.775 375.837 440.653C385.589 446.03 367.681 468.204 374.618 475.146C380.247 480.779 396.433 481.204 404 483.67C420.134 488.927 436.23 494.141 452 500.449C461.46 504.233 470.904 510.262 481 512C476.465 495.421 468.636 476.853 460 462C474.529 458.549 496.568 450.254 509 442C488.194 429.902 461.456 419.426 438 414L453 358C428.856 352.414 405.391 344.328 381 339.449C344.58 332.164 305.109 327.924 268 327.015C223.126 325.915 175.02 330.643 131 339.449C106.609 344.328 83.1437 352.414 59 358z"/>
<path style="fill:#f8bcbc; stroke:none;" d="M223 328L224 329L223 328z"/>
<path style="fill:#f38c7f; stroke:none;" d="M224 328L224 329L229 329L224 328M283 328L283 329L292 329L283 328z"/>
<path style="fill:#f8bcbc; stroke:none;" d="M206 329L207 330L206 329z"/>
<path style="fill:#f38c7f; stroke:none;" d="M207 329L207 330L214 330L207 329M299 329L299 330L307 330L299 329z"/>
<path style="fill:#f8bcbc; stroke:none;" d="M196 330L197 331L196 330z"/>
<path style="fill:#f38c7f; stroke:none;" d="M197 330L197 331L201 331L197 330M312 330L312 331L317 331L312 330M186 331L186 332L191 332L186 331M322 331L322 332L328 332L322 331M178 332L178 333L181 333L178 332M331 332L331 333L336 333L331 332M169 333L169 334L173 334L169 333M338 333L338 334L341 334L338 333z"/>
<path style="fill:#f8bcbc; stroke:none;" d="M341 333L342 334L341 333z"/>
<path style="fill:#f38c7f; stroke:none;" d="M162 334L162 335L166 335L162 334M346 334L346 335L349 335L346 334M155 335L155 336L159 336L155 335M353 335L353 336L356 336L353 335M150 336L150 337L153 337L150 336M359.667 336.333L360.333 336.667L359.667 336.333z"/>
<path style="fill:#f8bcbc; stroke:none;" d="M361 336L362 337L361 336z"/>
<path style="fill:#f38c7f; stroke:none;" d="M146 337L147 338L146 337M365 337L366 338L365 337M255.667 345.333L256.333 345.667L255.667 345.333z"/>
<path style="fill:#f8bcbc; stroke:none;" d="M255.667 346.333L256.333 346.667L255.667 346.333z"/>
<path style="fill:#ffffff; stroke:none;" d="M255 347L248 370L222 371L222 372C227.045 375.099 239.573 380.002 241.212 386.093C242.82 392.068 236.909 401.822 236 408L256 395.455L276 408C275.091 401.822 269.18 392.068 270.788 386.093C272.459 379.884 284.971 375.328 290 372L290 371L264 370C263.068 363.69 260.187 350.896 255 347z"/>
<path style="fill:#f38c7f; stroke:none;" d="M254 348L255 349L254 348M257 348L258 349L257 348z"/>
<path style="fill:#f8bcbc; stroke:none;" d="M254 349L255 350L254 349M257 349L258 350L257 349z"/>
<path style="fill:#f38c7f; stroke:none;" d="M253 351L254 352L253 351M258 351L259 352L258 351z"/>
<path style="fill:#f8bcbc; stroke:none;" d="M253 352L254 353L253 352M258 352L259 353L258 352M153 354L155 356L153 354z"/>
<path style="fill:#f38c7f; stroke:none;" d="M154 354L155 355L154 354M252 354L253 355L252 354M259 354L260 355L259 354M357 354L358 355L357 354z"/>
<path style="fill:#f8bcbc; stroke:none;" d="M358 354L357 356L358 354z"/>
<path style="fill:#ffffff; stroke:none;" d="M153 355C152.518 361.056 152.043 374.047 147.486 378.436C142.238 383.491 129.781 382.704 123 385C128.679 388.771 140.268 389.82 144.227 395.418C147.577 400.156 143.017 413.602 142 419L160 403.418L183 413L173.994 391.17L192 373C186.298 374.059 170.682 378.607 165.789 375.111C159.761 370.805 158.409 360.336 153 355z"/>
<path style="fill:#f8bcbc; stroke:none;" d="M252 355L253 356L252 355M259 355L260 356L259 355z"/>
<path style="fill:#ffffff; stroke:none;" d="M358 355C354.683 360.625 351.436 371.349 346.073 375.111C341.135 378.575 325.721 374.063 320 373L338.006 391.17L329 413L352 403.418L370 419C368.983 413.602 364.423 400.156 367.773 395.418C371.732 389.82 383.321 388.771 389 385L363.857 377.697L358 355z"/>
<path style="fill:#f38c7f; stroke:none;" d="M155 356L156 357L155 356M356 356L357 357L356 356M152.333 357.667L152.667 358.333L152.333 357.667z"/>
<path style="fill:#f8bcbc; stroke:none;" d="M155 357L156 358L155 357z"/>
<path style="fill:#f38c7f; stroke:none;" d="M251 357L252 358L251 357M260 357L261 358L260 357z"/>
<path style="fill:#f8bcbc; stroke:none;" d="M356 357L357 358L356 357z"/>
<path style="fill:#f38c7f; stroke:none;" d="M359.333 357.667L359.667 358.333L359.333 357.667M156 358L157 359L156 358z"/>
<path style="fill:#f8bcbc; stroke:none;" d="M251 358L252 359L251 358M260 358L261 359L260 358z"/>
<path style="fill:#f38c7f; stroke:none;" d="M355 358L356 359L355 358z"/>
<path style="fill:#f8bcbc; stroke:none;" d="M152 359L153 360L152 359M156 359L157 360L156 359M355 359L356 360L355 359M359 359L360 360L359 359z"/>
<path style="fill:#f38c7f; stroke:none;" d="M157 360L158 361L157 360z"/>
<path style="fill:#f8bcbc; stroke:none;" d="M250.333 360.667L250.667 361.333L250.333 360.667M261 360L262 361L261 360z"/>
<path style="fill:#f38c7f; stroke:none;" d="M354 360L355 361L354 360z"/>
<path style="fill:#f8bcbc; stroke:none;" d="M157 361L158 362L157 361M354 361L355 362L354 361z"/>
<path style="fill:#f38c7f; stroke:none;" d="M151.333 362.667L151.667 363.333L151.333 362.667M158 362L159 363L158 362M249 362L250 363L249 362M262 362L263 363L262 362M353 362L354 363L353 362M360.333 362.667L360.667 363.333L360.333 362.667z"/>
<path style="fill:#f8bcbc; stroke:none;" d="M249 363L250 364L249 363M262 363L263 364L262 363M151 364L152 365L151 364z"/>
<path style="fill:#f38c7f; stroke:none;" d="M159 364L160 365L159 364M352 364L353 365L352 364z"/>
<path style="fill:#f8bcbc; stroke:none;" d="M360 364L361 365L360 364z"/>
<path style="fill:#f38c7f; stroke:none;" d="M248 365L249 366L248 365M263 365L264 366L263 365M160 366L161 367L160 366z"/>
<path style="fill:#f8bcbc; stroke:none;" d="M248 366L249 367L248 366M263 366L264 367L263 366z"/>
<path style="fill:#f38c7f; stroke:none;" d="M351 366L352 367L351 366M150.333 367.667L150.667 368.333L150.333 367.667M361.333 367.667L361.667 368.333L361.333 367.667z"/>
<path style="fill:#f8bcbc; stroke:none;" d="M161 368L162 369L161 368z"/>
<path style="fill:#f38c7f; stroke:none;" d="M247 368L248 369L247 368M264 368L265 369L264 368z"/>
<path style="fill:#f8bcbc; stroke:none;" d="M350 368L351 369L350 368M150.333 369.667L150.667 370.333L150.333 369.667z"/>
<path style="fill:#f38c7f; stroke:none;" d="M237 369L237 370L245 370L237 369z"/>
<path style="fill:#f8bcbc; stroke:none;" d="M245 369L245 370L248 370L245 369M264 369L264 370L267 370L264 369z"/>
<path style="fill:#f38c7f; stroke:none;" d="M267 369L267 370L275 370L267 369z"/>
<path style="fill:#f8bcbc; stroke:none;" d="M361.333 369.667L361.667 370.333L361.333 369.667M162 370L163 371L162 370M220 370L220 371L228 371L220 370M284 370L284 371L292 371L284 370M349 370L350 371L349 370z"/>
<path style="fill:#f38c7f; stroke:none;" d="M149.333 372.667L149.667 373.333L149.333 372.667z"/>
<path style="fill:#f8bcbc; stroke:none;" d="M163 372L164 373L163 372z"/>
<path style="fill:#f38c7f; stroke:none;" d="M192.333 372.667L192.667 373.333L192.333 372.667M222 372L223 373L222 372M289 372L290 373L289 372M319.333 372.667L319.667 373.333L319.333 372.667z"/>
<path style="fill:#f8bcbc; stroke:none;" d="M348 372L349 373L348 372z"/>
<path style="fill:#f38c7f; stroke:none;" d="M362.333 372.667L362.667 373.333L362.333 372.667M184 373L184 374L187 374L184 373z"/>
<path style="fill:#f8bcbc; stroke:none;" d="M187 373L187 374L190 374L187 373M224 373L225 374L224 373M287 373L288 374L287 373M322 373L322 374L325 374L322 373z"/>
<path style="fill:#f38c7f; stroke:none;" d="M325 373L325 374L328 374L325 373z"/>
<path style="fill:#f8bcbc; stroke:none;" d="M149.333 374.667L149.667 375.333L149.333 374.667M164 374L165 375L164 374z"/>
<path style="fill:#f38c7f; stroke:none;" d="M177.667 374.333L178.333 374.667L177.667 374.333z"/>
<path style="fill:#f8bcbc; stroke:none;" d="M179 374L179 375L182 375L179 374z"/>
<path style="fill:#f38c7f; stroke:none;" d="M191 374L192 375L191 374M225 374L226 375L225 374z"/>
<path style="fill:#f8bcbc; stroke:none;" d="M226 374L227 375L226 374z"/>
<path style="fill:#f38c7f; stroke:none;" d="M286 374L287 375L286 374M320 374L321 375L320 374z"/>
<path style="fill:#f8bcbc; stroke:none;" d="M330 374L330 375L333 375L330 374z"/>
<path style="fill:#f38c7f; stroke:none;" d="M333.667 374.333L334.333 374.667L333.667 374.333z"/>
<path style="fill:#f8bcbc; stroke:none;" d="M347 374L348 375L347 374M362.333 374.667L362.667 375.333L362.333 374.667z"/>
<path style="fill:#f38c7f; stroke:none;" d="M169.667 375.333L170.333 375.667L169.667 375.333z"/>
<path style="fill:#f8bcbc; stroke:none;" d="M171 375L171 376L174 376L171 375z"/>
<path style="fill:#f38c7f; stroke:none;" d="M190 375L191 376L190 375M227 375L228 376L227 375z"/>
<path style="fill:#f8bcbc; stroke:none;" d="M284 375L285 376L284 375z"/>
<path style="fill:#f38c7f; stroke:none;" d="M321 375L322 376L321 375z"/>
<path style="fill:#f8bcbc; stroke:none;" d="M338 375L338 376L341 376L338 375z"/>
<path style="fill:#f38c7f; stroke:none;" d="M341.667 375.333L342.333 375.667L341.667 375.333z"/>
<path style="fill:#f8bcbc; stroke:none;" d="M166 376L167 377L166 376M188 376L189 377L188 376M229 376L230 377L229 376M282 376L283 377L282 376M323 376L324 377L323 376M345 376L346 377L345 376z"/>
<path style="fill:#f38c7f; stroke:none;" d="M148.333 377.667L148.667 378.333L148.333 377.667z"/>
<path style="fill:#f8bcbc; stroke:none;" d="M187 377L188 378L187 377z"/>
<path style="fill:#f38c7f; stroke:none;" d="M230 377L231 378L230 377M281 377L282 378L281 377z"/>
<path style="fill:#f8bcbc; stroke:none;" d="M324 377L325 378L324 377z"/>
<path style="fill:#f38c7f; stroke:none;" d="M363.333 377.667L363.667 378.333L363.333 377.667z"/>
<path style="fill:#f8bcbc; stroke:none;" d="M186 378L187 379L186 378M232 378L233 379L232 378M279 378L280 379L279 378M325 378L326 379L325 378z"/>
<path style="fill:#f38c7f; stroke:none;" d="M145.667 379.333L146.333 379.667L145.667 379.333z"/>
<path style="fill:#f8bcbc; stroke:none;" d="M147 379L148 380L147 379z"/>
<path style="fill:#f38c7f; stroke:none;" d="M185 379L186 380L185 379M233 379L234 380L233 379z"/>
<path style="fill:#f8bcbc; stroke:none;" d="M234 379L235 380L234 379M277 379L278 380L277 379z"/>
<path style="fill:#f38c7f; stroke:none;" d="M278 379L279 380L278 379M326 379L327 380L326 379z"/>
<path style="fill:#f8bcbc; stroke:none;" d="M364 379L365 380L364 379z"/>
<path style="fill:#f38c7f; stroke:none;" d="M365.667 379.333L366.333 379.667L365.667 379.333M140.667 380.333L141.333 380.667L140.667 380.333z"/>
<path style="fill:#f8bcbc; stroke:none;" d="M142.667 380.333L143.333 380.667L142.667 380.333z"/>
<path style="fill:#f38c7f; stroke:none;" d="M184 380L185 381L184 380M235 380L236 381L235 380M276 380L277 381L276 380M327 380L328 381L327 380z"/>
<path style="fill:#f8bcbc; stroke:none;" d="M368.667 380.333L369.333 380.667L368.667 380.333z"/>
<path style="fill:#f38c7f; stroke:none;" d="M370.667 380.333L371.333 380.667L370.667 380.333M135.667 381.333L136.333 381.667L135.667 381.333z"/>
<path style="fill:#f8bcbc; stroke:none;" d="M137.667 381.333L138.333 381.667L137.667 381.333z"/>
<path style="fill:#f38c7f; stroke:none;" d="M183 381L184 382L183 381z"/>
<path style="fill:#f8bcbc; stroke:none;" d="M237 381L238 382L237 381M274 381L275 382L274 381z"/>
<path style="fill:#f38c7f; stroke:none;" d="M328 381L329 382L328 381z"/>
<path style="fill:#f8bcbc; stroke:none;" d="M373.667 381.333L374.333 381.667L373.667 381.333z"/>
<path style="fill:#f38c7f; stroke:none;" d="M375.667 381.333L376.333 381.667L375.667 381.333M131 382L132 383L131 382z"/>
<path style="fill:#f8bcbc; stroke:none;" d="M132.667 382.333L133.333 382.667L132.667 382.333z"/>
<path style="fill:#f38c7f; stroke:none;" d="M238 382L239 383L238 382M273 382L274 383L273 382z"/>
<path style="fill:#f8bcbc; stroke:none;" d="M378.667 382.333L379.333 382.667L378.667 382.333z"/>
<path style="fill:#f38c7f; stroke:none;" d="M380 382L381 383L380 382M126 383L127 384L126 383z"/>
<path style="fill:#f8bcbc; stroke:none;" d="M127.667 383.333L128.333 383.667L127.667 383.333M180 383L181 384L180 383M240 383L241 384L240 383M271 383L272 384L271 383M331 383L332 384L331 383M383.667 383.333L384.333 383.667L383.667 383.333z"/>
<path style="fill:#f38c7f; stroke:none;" d="M385 383L386 384L385 383M121 384L122 385L121 384z"/>
<path style="fill:#f8bcbc; stroke:none;" d="M122 384L122 386L124 384L122 384M179 384L180 385L179 384z"/>
<path style="fill:#f38c7f; stroke:none;" d="M241 384L242 385L241 384M270 384L271 385L270 384z"/>
<path style="fill:#f8bcbc; stroke:none;" d="M332 384L333 385L332 384M388 384L390 386L390 384L388 384z"/>
<path style="fill:#f38c7f; stroke:none;" d="M390 384L391 385L390 384z"/>
<path style="fill:#f8bcbc; stroke:none;" d="M178 385L179 386L178 385M333 385L334 386L333 385z"/>
<path style="fill:#f38c7f; stroke:none;" d="M124 386L125 387L124 386z"/>
<path style="fill:#f8bcbc; stroke:none;" d="M125 386L126 387L125 386z"/>
<path style="fill:#f38c7f; stroke:none;" d="M177 386L178 387L177 386M270 386L271 387L270 386M334 386L335 387L334 386z"/>
<path style="fill:#f8bcbc; stroke:none;" d="M386 386L387 387L386 386z"/>
<path style="fill:#f38c7f; stroke:none;" d="M387 386L388 387L387 386z"/>
<path style="fill:#f8bcbc; stroke:none;" d="M127 387L128 388L127 387z"/>
<path style="fill:#f38c7f; stroke:none;" d="M176 387L177 388L176 387z"/>
<path style="fill:#f8bcbc; stroke:none;" d="M241.333 387.667L241.667 388.333L241.333 387.667M270.333 387.667L270.667 388.333L270.333 387.667z"/>
<path style="fill:#f38c7f; stroke:none;" d="M335 387L336 388L335 387z"/>
<path style="fill:#f8bcbc; stroke:none;" d="M384 387L385 388L384 387z"/>
<path style="fill:#f38c7f; stroke:none;" d="M129 388L130 389L129 388z"/>
<path style="fill:#f8bcbc; stroke:none;" d="M130 388L131 389L130 388z"/>
<path style="fill:#f38c7f; stroke:none;" d="M175 388L176 389L175 388M336 388L337 389L336 388z"/>
<path style="fill:#f8bcbc; stroke:none;" d="M381 388L382 389L381 388z"/>
<path style="fill:#f38c7f; stroke:none;" d="M382 388L383 389L382 388M131 389L132 390L131 389z"/>
<path style="fill:#f8bcbc; stroke:none;" d="M132 389L133 390L132 389M173 389L174 390L173 389M338 389L339 390L338 389M379 389L380 390L379 389z"/>
<path style="fill:#f38c7f; stroke:none;" d="M380 389L381 390L380 389M134 390L135 391L134 390M240 390L241 391L240 390M271 390L272 391L271 390M377 390L378 391L377 390M136 391L137 392L136 391z"/>
<path style="fill:#f8bcbc; stroke:none;" d="M137 391L138 392L137 391M240 391L241 392L240 391M271 391L272 392L271 391M374 391L375 392L374 391z"/>
<path style="fill:#f38c7f; stroke:none;" d="M375 391L376 392L375 391z"/>
<path style="fill:#f8bcbc; stroke:none;" d="M139 392L140 393L139 392M173 392L174 393L173 392M338 392L339 393L338 392M372 392L373 393L372 392z"/>
<path style="fill:#f38c7f; stroke:none;" d="M141 393L142 394L141 393z"/>
<path style="fill:#f8bcbc; stroke:none;" d="M142 393L143 394L142 393z"/>
<path style="fill:#f38c7f; stroke:none;" d="M239 393L240 394L239 393M272 393L273 394L272 393z"/>
<path style="fill:#f8bcbc; stroke:none;" d="M369 393L370 394L369 393z"/>
<path style="fill:#f38c7f; stroke:none;" d="M370 393L371 394L370 393M143 394L144 395L143 394z"/>
<path style="fill:#f8bcbc; stroke:none;" d="M144 394L145 395L144 394M174 394L175 395L174 394M239 394L240 395L239 394z"/>
<path style="fill:#f38c7f; stroke:none;" d="M255.667 394.333L256.333 394.667L255.667 394.333z"/>
<path style="fill:#f8bcbc; stroke:none;" d="M272 394L273 395L272 394M337 394L338 395L337 394M367 394L368 395L367 394z"/>
<path style="fill:#f38c7f; stroke:none;" d="M368 394L369 395L368 394M145 395L146 396L145 395z"/>
<path style="fill:#f8bcbc; stroke:none;" d="M253 395L254 396L253 395M258 395L259 396L258 395z"/>
<path style="fill:#f38c7f; stroke:none;" d="M366 395L367 396L366 395z"/>
<path style="fill:#f8bcbc; stroke:none;" d="M145.333 396.667L145.667 397.333L145.333 396.667M175 396L176 397L175 396z"/>
<path style="fill:#f38c7f; stroke:none;" d="M238 396L239 397L238 396z"/>
<path style="fill:#f8bcbc; stroke:none;" d="M252 396L253 397L252 396M259 396L260 397L259 396z"/>
<path style="fill:#f38c7f; stroke:none;" d="M273 396L274 397L273 396z"/>
<path style="fill:#f8bcbc; stroke:none;" d="M336 396L337 397L336 396M366.333 396.667L366.667 397.333L366.333 396.667M238 397L239 398L238 397z"/>
<path style="fill:#f38c7f; stroke:none;" d="M251 397L252 398L251 397M260 397L261 398L260 397z"/>
<path style="fill:#f8bcbc; stroke:none;" d="M273 397L274 398L273 397z"/>
<path style="fill:#f38c7f; stroke:none;" d="M176 398L177 399L176 398z"/>
<path style="fill:#f8bcbc; stroke:none;" d="M249 398L250 399L249 398M262 398L263 399L262 398z"/>
<path style="fill:#f38c7f; stroke:none;" d="M335 398L336 399L335 398M237 399L238 400L237 399M248 399L249 400L248 399M263 399L264 400L263 399M274 399L275 400L274 399M144.333 400.667L144.667 401.333L144.333 400.667M177 400L178 401L177 400z"/>
<path style="fill:#f8bcbc; stroke:none;" d="M237.333 400.667L237.667 401.333L237.333 400.667z"/>
<path style="fill:#f38c7f; stroke:none;" d="M247 400L248 401L247 400M264 400L265 401L264 400z"/>
<path style="fill:#f8bcbc; stroke:none;" d="M274.333 400.667L274.667 401.333L274.333 400.667z"/>
<path style="fill:#f38c7f; stroke:none;" d="M334 400L335 401L334 400M367.333 400.667L367.667 401.333L367.333 400.667z"/>
<path style="fill:#f8bcbc; stroke:none;" d="M245 401L246 402L245 401M266 401L267 402L266 401M144.333 402.667L144.667 403.333L144.333 402.667M159 402L160 403L159 402M161 402L162 403L161 402z"/>
<path style="fill:#f38c7f; stroke:none;" d="M178 402L179 403L178 402M244 402L245 403L244 402M267 402L268 403L267 402M333 402L334 403L333 402z"/>
<path style="fill:#f8bcbc; stroke:none;" d="M350 402L351 403L350 402M352 402L353 403L352 402M367.333 402.667L367.667 403.333L367.333 402.667M158 403L159 404L158 403M163 403L164 404L163 403M178 403L179 404L178 403z"/>
<path style="fill:#f38c7f; stroke:none;" d="M236 403L237 404L236 403z"/>
<path style="fill:#f8bcbc; stroke:none;" d="M242 403L243 404L242 403z"/>
<path style="fill:#f38c7f; stroke:none;" d="M243 403L244 404L243 403z"/>
<path style="fill:#f8bcbc; stroke:none;" d="M269 403L270 404L269 403z"/>
<path style="fill:#f38c7f; stroke:none;" d="M275 403L276 404L275 403z"/>
<path style="fill:#f8bcbc; stroke:none;" d="M333 403L334 404L333 403M348 403L349 404L348 403M353 403L354 404L353 403M157 404L158 405L157 404M165 404L166 405L165 404z"/>
<path style="fill:#f38c7f; stroke:none;" d="M179 404L180 405L179 404z"/>
<path style="fill:#f8bcbc; stroke:none;" d="M236 404L237 405L236 404M241 404L242 405L241 404M270 404L271 405L270 404M275 404L276 405L275 404z"/>
<path style="fill:#f38c7f; stroke:none;" d="M332 404L333 405L332 404z"/>
<path style="fill:#f8bcbc; stroke:none;" d="M346 404L347 405L346 404M354 404L355 405L354 404M156 405L157 406L156 405M167 405L168 406L167 405M179 405L180 406L179 405z"/>
<path style="fill:#f38c7f; stroke:none;" d="M240 405L241 406L240 405M271 405L272 406L271 405z"/>
<path style="fill:#f8bcbc; stroke:none;" d="M332 405L333 406L332 405M344 405L345 406L344 405M355 405L356 406L355 405z"/>
<path style="fill:#f38c7f; stroke:none;" d="M143.333 406.667L143.667 407.333L143.333 406.667z"/>
<path style="fill:#f8bcbc; stroke:none;" d="M155 406L156 407L155 406M169 406L170 407L169 406z"/>
<path style="fill:#f38c7f; stroke:none;" d="M180 406L181 407L180 406M235 406L236 407L235 406z"/>
<path style="fill:#f8bcbc; stroke:none;" d="M238 406L239 407L238 406M273 406L274 407L273 406z"/>
<path style="fill:#f38c7f; stroke:none;" d="M276 406L277 407L276 406M331 406L332 407L331 406z"/>
<path style="fill:#f8bcbc; stroke:none;" d="M342 406L343 407L342 406M356 406L357 407L356 406z"/>
<path style="fill:#f38c7f; stroke:none;" d="M368.333 406.667L368.667 407.333L368.333 406.667z"/>
<path style="fill:#f8bcbc; stroke:none;" d="M154 407L155 408L154 407M171 407L172 408L171 407M180 407L181 408L180 407M235.333 407.667L235.667 408.333L235.333 407.667M237 407L238 408L237 407M274 407L275 408L274 407M276.333 407.667L276.667 408.333L276.333 407.667M331 407L332 408L331 407M340 407L341 408L340 407M357 407L358 408L357 407M143 408L143 411L144 411L143 408M153 408L154 409L153 408M173 408L174 409L173 408z"/>
<path style="fill:#f38c7f; stroke:none;" d="M181 408L182 409L181 408M236 408L237 409L236 408M275 408L276 409L275 408M330 408L331 409L330 408z"/>
<path style="fill:#f8bcbc; stroke:none;" d="M338 408L339 409L338 408M358 408L359 409L358 408M368 408L368 411L369 411L368 408M152 409L153 410L152 409M175 409L176 410L175 409M181 409L182 410L181 409M330 409L331 410L330 409M336 409L337 410L336 409M359 409L360 410L359 409M151 410L152 411L151 410M177 410L178 411L177 410z"/>
<path style="fill:#f38c7f; stroke:none;" d="M182 410L183 411L182 410M329 410L330 411L329 410z"/>
<path style="fill:#f8bcbc; stroke:none;" d="M334 410L335 411L334 410M360 410L361 411L360 410M150 411L151 412L150 411M179 411L180 412L179 411M182 411L183 412L182 411M329 411L330 412L329 411M332 411L333 412L332 411M361 411L362 412L361 411M149 412L150 413L149 412M181 412L182 413L181 412M330 412L331 413L330 412M362 412L363 413L362 412z"/>
<path style="fill:#f38c7f; stroke:none;" d="M142.333 413.667L142.667 414.333L142.333 413.667z"/>
<path style="fill:#f8bcbc; stroke:none;" d="M148 413L149 414L148 413z"/>
<path style="fill:#f38c7f; stroke:none;" d="M182.667 413.333L183.333 413.667L182.667 413.333M328.667 413.333L329.333 413.667L328.667 413.333z"/>
<path style="fill:#f8bcbc; stroke:none;" d="M363 413L364 414L363 413z"/>
<path style="fill:#f38c7f; stroke:none;" d="M369.333 413.667L369.667 414.333L369.333 413.667z"/>
<path style="fill:#f8bcbc; stroke:none;" d="M147 414L148 415L147 414M364 414L365 415L364 414M142.333 415.667L142.667 416.333L142.333 415.667M146 415L147 416L146 415M365 415L366 416L365 415M369.333 415.667L369.667 416.333L369.333 415.667M145 416L146 417L145 416M366 416L367 417L366 416M144 417L145 418L144 417M367 417L368 418L367 417M143 418L144 419L143 418M368 418L369 419L368 418z"/>
<path style="fill:#f38c7f; stroke:none;" d="M141.333 419.667L141.667 420.333L141.333 419.667z"/>
<path style="fill:#f8bcbc; stroke:none;" d="M142 419L143 420L142 419M369 419L370 420L369 419z"/>
<path style="fill:#f38c7f; stroke:none;" d="M370.333 419.667L370.667 420.333L370.333 419.667z"/>
<path style="fill:#ffffff; stroke:none;" d="M34 511L34 512L478 512C458.167 496.99 425.622 489.759 402 482.721C394.158 480.384 383.121 480.038 376.163 475.697C366.583 469.72 385.779 446.232 376.678 440.653C372.045 437.812 364.283 437.53 359 436.576C346.364 434.293 333.732 432.372 321 430.718C277.699 425.094 233.302 425.663 190 430.845C173.379 432.834 151.548 433.413 136.149 440.263C125.965 444.794 144.279 468.571 136.643 475.146C129.96 480.9 114.389 481.232 106 484.001C81.5934 492.056 58.2331 502.751 34 511z"/>
</svg>
